<svg xmlns="http://www.w3.org/2000/svg" viewBox="0 0 100 100">
  <!-- Background circle -->
  <circle cx="50" cy="50" r="50" fill="#4F46E5"/>

  <!-- Gear icon -->
  <g fill="#FFFFFF">
    <!-- Gear teeth -->
    <path d="M50,20 L53,25 L47,25 Z"/>
    <path d="M68,26 L69,31 L64,29 Z"/>
    <path d="M78,40 L80,45 L75,43 Z"/>
    <path d="M80,55 L80,60 L75,57 Z"/>
    <path d="M76,72 L74,77 L71,72 Z"/>
    <path d="M62,82 L59,86 L57,81 Z"/>
    <path d="M45,84 L43,88 L41,83 Z"/>
    <path d="M28,78 L25,82 L24,77 Z"/>
    <path d="M18,64 L15,67 L15,62 Z"/>
    <path d="M16,46 L14,50 L14,45 Z"/>
    <path d="M22,30 L20,34 L19,29 Z"/>
    <path d="M36,22 L35,27 L32,23 Z"/>

    <!-- Gear body -->
    <circle cx="50" cy="50" r="18" fill="#FFFFFF"/>
    <circle cx="50" cy="50" r="12" fill="#4F46E5"/>

    <!-- Wrench -->
    <g transform="translate(60, 60) rotate(-30)">
      <rect x="-2" y="0" width="4" height="20" rx="1" fill="#FFFFFF"/>
      <ellipse cx="0" cy="0" rx="4" ry="3" fill="#FFFFFF"/>
      <rect x="-1" y="18" width="2" height="4" fill="#FFFFFF"/>
      <rect x="-3" y="20" width="6" height="2" fill="#FFFFFF"/>
    </g>
  </g>
</svg>
